<svg xmlns="http://www.w3.org/2000/svg" width="64" height="64" fill="#000" viewBox="0 0 64 64"><path d="M 28 5 C 26.895 5 26 5.895 26 7 L 26 58 C 26 59.105 26.895 60 28 60 L 36 60 C 37.105 60 38 59.105 38 58 L 38 7 C 38 5.895 37.105 5 36 5 L 28 5 z M 21 7 C 20.448 7 20 7.448 20 8 C 20 8.552 20.448 9 21 9 L 23 9 C 23.552 9 24 8.552 24 8 C 24 7.448 23.552 7 23 7 L 21 7 z M 28 7 L 36 7 L 36 58 L 28 58 L 28 7 z M 32 10 C 31.448 10 31 10.447 31 11 L 31 15 C 31 15.553 31.448 16 32 16 C 32.552 16 33 15.553 33 15 L 33 11 C 33 10.447 32.552 10 32 10 z M 21 12 C 20.448 12 20 12.448 20 13 C 20 13.552 20.448 14 21 14 L 23 14 C 23.552 14 24 13.552 24 13 C 24 12.448 23.552 12 23 12 L 21 12 z M 21 17 C 20.448 17 20 17.448 20 18 C 20 18.552 20.448 19 21 19 L 23 19 C 23.552 19 24 18.552 24 18 C 24 17.448 23.552 17 23 17 L 21 17 z M 32 18 C 31.448 18 31 18.447 31 19 L 31 27 C 31 27.553 31.448 28 32 28 C 32.552 28 33 27.553 33 27 L 33 19 C 33 18.447 32.552 18 32 18 z M 21 22 C 20.448 22 20 22.448 20 23 C 20 23.552 20.448 24 21 24 L 23 24 C 23.552 24 24 23.552 24 23 C 24 22.448 23.552 22 23 22 L 21 22 z M 21 27 C 20.448 27 20 27.448 20 28 C 20 28.552 20.448 29 21 29 L 23 29 C 23.552 29 24 28.552 24 28 C 24 27.448 23.552 27 23 27 L 21 27 z M 21 32 C 20.448 32 20 32.448 20 33 C 20 33.552 20.448 34 21 34 L 23 34 C 23.552 34 24 33.552 24 33 C 24 32.448 23.552 32 23 32 L 21 32 z M 21 37 C 20.448 37 20 37.448 20 38 C 20 38.552 20.448 39 21 39 L 23 39 C 23.552 39 24 38.552 24 38 C 24 37.448 23.552 37 23 37 L 21 37 z M 21 42 C 20.448 42 20 42.448 20 43 C 20 43.552 20.448 44 21 44 L 23 44 C 23.552 44 24 43.552 24 43 C 24 42.448 23.552 42 23 42 L 21 42 z M 21 47 C 20.448 47 20 47.448 20 48 C 20 48.552 20.448 49 21 49 L 23 49 C 23.552 49 24 48.552 24 48 C 24 47.448 23.552 47 23 47 L 21 47 z M 21 52 C 20.448 52 20 52.448 20 53 C 20 53.552 20.448 54 21 54 L 23 54 C 23.552 54 24 53.552 24 53 C 24 52.448 23.552 52 23 52 L 21 52 z M 21 57 C 20.448 57 20 57.448 20 58 C 20 58.552 20.448 59 21 59 L 23 59 C 23.552 59 24 58.552 24 58 C 24 57.448 23.552 57 23 57 L 21 57 z"/></svg>